<svg width="51" height="63" viewBox="0 0 51 63" fill="none" xmlns="http://www.w3.org/2000/svg">
<path d="M0.571383 10.4893C1.03591 12.2229 2.82287 13.2504 4.56267 12.7842L8.0292 25.7215L0.709088 52.8732C-0.885269 58.787 4.52573 64.2063 10.442 62.6211L44.8914 53.3904C50.8076 51.8051 52.784 44.4063 48.4464 40.082L28.5311 20.228L25.0646 7.29074C26.8044 6.82456 27.8382 5.04127 27.3737 3.30763C26.9091 1.574 25.1222 0.546529 23.3824 1.01271L2.88048 6.50618C1.14068 6.97235 0.106858 8.75565 0.571383 10.4893Z" fill="white" fill-opacity="0.3"/>
<path fill-rule="evenodd" clip-rule="evenodd" d="M7.34438 9.08341L11.8033 25.7244L4.2282 53.8219C3.36485 57.0243 6.29494 59.9589 9.49863 59.1005L43.948 49.8698C47.1517 49.0114 48.2219 45.0049 45.8731 42.6632L25.2641 22.1176L20.8051 5.47662L7.34438 9.08341ZM4.56267 12.7842C2.82287 13.2504 1.03591 12.2229 0.571383 10.4893C0.106858 8.75565 1.14068 6.97235 2.88048 6.50618L23.3824 1.01271C25.1222 0.546529 26.9091 1.574 27.3737 3.30763C27.8382 5.04127 26.8044 6.82456 25.0646 7.29074L28.5311 20.228L48.4464 40.082C52.784 44.4063 50.8076 51.8051 44.8914 53.3904L10.442 62.6211C4.52573 64.2063 -0.885269 58.787 0.709088 52.8732L8.0292 25.7215L4.56267 12.7842Z" fill="white"/>
<path d="M14.6829 10.8856C14.4224 9.91339 13.4231 9.33646 12.4509 9.59695C11.4787 9.85745 10.9018 10.8567 11.1623 11.8289L14.8942 25.7568L7.23642 53.8329C6.97158 54.8039 7.54404 55.8058 8.51504 56.0706C9.48604 56.3355 10.4879 55.763 10.7527 54.792L18.5378 26.2495C18.599 26.0303 18.6198 25.7977 18.5937 25.5623C18.5879 25.5093 18.5796 25.456 18.5689 25.4028C18.5613 25.3648 18.5524 25.3268 18.5422 25.2888L14.6829 10.8856Z" fill="white"/>
</svg>
