<svg xmlns="http://www.w3.org/2000/svg" width="62" height="62" viewBox="0 0 62 62" fill="none">
  <path d="M31 47.2222C39.8979 47.2222 47.1111 40.009 47.1111 31.1111C47.1111 22.2132 39.8979 15 31 15C22.1021 15 14.8889 22.2132 14.8889 31.1111C14.8889 40.009 22.1021 47.2222 31 47.2222Z" stroke="#FA8072" stroke-width="4" stroke-miterlimit="10"/>
  <path d="M31 60C47.0163 60 60 47.0163 60 31C60 14.9837 47.0163 2 31 2C14.9837 2 2 14.9837 2 31C2 47.0163 14.9837 60 31 60Z" stroke="#FA8072" stroke-width="4" stroke-miterlimit="10"/>
  <path d="M24.5556 53.1111C37.0126 53.1111 47.1111 43.0126 47.1111 30.5556C47.1111 18.0985 37.0126 8 24.5556 8C12.0985 8 2 18.0985 2 30.5556C2 43.0126 12.0985 53.1111 24.5556 53.1111Z" stroke="#FA8072" stroke-width="4" stroke-miterlimit="10"/>
</svg>