<svg width="240" height="340" viewBox="0 0 240 340" fill="none" xmlns="http://www.w3.org/2000/svg">
<path d="M146.628 168.808H78.7043C72.0843 168.808 66.7178 174.174 66.7178 180.794V219.421C66.7178 226.041 72.0843 231.407 78.7043 231.407H146.628C153.248 231.407 158.614 226.041 158.614 219.421V180.794C158.614 174.174 153.248 168.808 146.628 168.808Z" fill="#429F46"/>
<path d="M71.8818 156.152C71.8818 156.152 49.6869 157.091 49.4371 169.837C49.1874 182.583 48.7879 194.179 66.7176 198.235C84.6474 202.29 65.6888 199.424 65.6888 199.424L85.6963 186.608L71.8818 156.152Z" fill="#ADDEE1"/>
<path d="M149.434 156.151C149.434 156.151 181.198 164.512 189.499 223.116L173.926 228.879C173.926 228.879 169.002 214.645 159.033 207.264L141.873 182.602L149.444 156.161L149.434 156.151Z" fill="#EDD6A5"/>
<path d="M183.366 243.763C189.644 243.763 194.733 238.673 194.733 232.395C194.733 226.118 189.644 221.028 183.366 221.028C177.088 221.028 171.999 226.118 171.999 232.395C171.999 238.673 177.088 243.763 183.366 243.763Z" fill="#EDD6A5"/>
<path d="M201.794 238.301C202.839 237.017 201.431 234.142 198.65 231.879C195.869 229.615 192.767 228.821 191.723 230.105C190.678 231.388 192.086 234.264 194.867 236.527C197.648 238.79 200.749 239.585 201.794 238.301Z" fill="#EDD6A5"/>
<path d="M196.406 246.039C197.959 245.467 198.213 242.276 196.974 238.911C195.735 235.546 193.471 233.282 191.918 233.854C190.365 234.426 190.111 237.617 191.35 240.982C192.589 244.347 194.853 246.611 196.406 246.039Z" fill="#EDD6A5"/>
<path d="M188.188 250.236C189.843 250.213 191.144 247.288 191.095 243.702C191.045 240.117 189.664 237.229 188.009 237.252C186.354 237.274 185.053 240.2 185.102 243.785C185.152 247.37 186.533 250.259 188.188 250.236Z" fill="#EDD6A5"/>
<path d="M184.295 244.378C184.967 240.856 184.194 237.749 182.569 237.439C180.943 237.129 179.08 239.732 178.408 243.254C177.735 246.777 178.508 249.883 180.133 250.194C181.759 250.504 183.622 247.901 184.295 244.378Z" fill="#EDD6A5"/>
<path d="M171.926 239.879C174.848 237.801 176.44 235.023 175.481 233.674C174.522 232.325 171.376 232.916 168.453 234.994C165.531 237.072 163.939 239.849 164.898 241.198C165.857 242.547 169.003 241.956 171.926 239.879Z" fill="#EDD6A5"/>
<path d="M149.434 156.151C149.434 156.151 161.011 156.041 174.616 178.816L179.74 175.639L181.728 192.62L159.033 207.264C159.033 207.264 153.559 198.564 140.464 193.849C140.464 193.849 110.837 166.789 149.434 156.151Z" fill="#ADDEE1"/>
<path d="M179.151 176.919L150.023 198.674L158.883 207.235L181.178 193.251L179.151 176.919Z" fill="white"/>
<path d="M175.495 188.695C176.94 188.695 178.112 187.523 178.112 186.078C178.112 184.633 176.94 183.461 175.495 183.461C174.05 183.461 172.878 184.633 172.878 186.078C172.878 187.523 174.05 188.695 175.495 188.695Z" fill="#ADDEE1"/>
<path d="M74.7085 220.08L84.6972 321.965H139.635L153.62 220.08H74.7085Z" fill="#17355E"/>
<path d="M110.168 313.474L112.166 248.457L125.152 239.587L114.164 250.225L110.168 313.474Z" fill="#ADDEE1"/>
<path d="M77.7051 155.493L147.267 155.134L153.62 220.081H74.7085L77.7051 155.493Z" fill="#ADDEE1"/>
<path d="M74.5488 210.761L152.461 211.76L153.62 220.08H74.7087L74.5488 210.761Z" fill="#231F20"/>
<path d="M122.494 208.094H105.843V222.078H122.494V208.094Z" fill="#C4D92E"/>
<path d="M119.807 154.154L118.829 205.107L121.156 153.885L119.807 154.154Z" fill="white"/>
<path d="M113.215 171.505C114.661 171.505 115.832 170.333 115.832 168.888C115.832 167.442 114.661 166.271 113.215 166.271C111.77 166.271 110.598 167.442 110.598 168.888C110.598 170.333 111.77 171.505 113.215 171.505Z" fill="white"/>
<path d="M113.215 189.654C114.661 189.654 115.832 188.482 115.832 187.037C115.832 185.592 114.661 184.42 113.215 184.42C111.77 184.42 110.598 185.592 110.598 187.037C110.598 188.482 111.77 189.654 113.215 189.654Z" fill="white"/>
<path d="M113.295 204.718C114.741 204.718 115.912 203.546 115.912 202.1C115.912 200.655 114.741 199.483 113.295 199.483C111.85 199.483 110.678 200.655 110.678 202.1C110.678 203.546 111.85 204.718 113.295 204.718Z" fill="white"/>
<path d="M106.952 153.845L108.84 192.981L108.291 153.585L106.952 153.845Z" fill="white"/>
<path d="M85.6963 155.493L97.4331 166.89L112.916 162.025L129.027 167.389L140.974 154.823L113.665 148.91L85.6963 155.493Z" fill="white"/>
<path d="M112.925 161.795C147.117 161.795 174.836 134.077 174.836 99.8848C174.836 65.6928 147.117 37.9746 112.925 37.9746C78.7333 37.9746 51.0151 65.6928 51.0151 99.8848C51.0151 134.077 78.7333 161.795 112.925 161.795Z" fill="#EDD6A5"/>
<path d="M108.168 151.949C121.043 155.155 134.088 147.324 137.3 134.468L90.6607 122.861C87.4494 135.717 95.2926 148.742 108.168 151.949Z" fill="#231F20"/>
<path d="M99.9848 128.266C96.5934 127.417 93.192 127.547 90.0508 128.426C89.9307 139.294 97.2337 149.222 108.248 151.959C110.109 152.419 111.97 152.629 113.81 152.649C113.91 152.329 114.02 152.029 114.1 151.7C116.692 141.331 110.369 130.843 99.9848 128.256V128.266Z" fill="#ED1C24"/>
<path d="M174.816 114.429C182.015 114.429 187.851 108.593 187.851 101.394C187.851 94.1945 182.015 88.3584 174.816 88.3584C167.616 88.3584 161.78 94.1945 161.78 101.394C161.78 108.593 167.616 114.429 174.816 114.429Z" fill="#EDD6A5"/>
<path d="M51.0353 111.402C58.2345 111.402 64.0706 105.566 64.0706 98.3664C64.0706 91.1672 58.2345 85.3311 51.0353 85.3311C43.8361 85.3311 38 91.1672 38 98.3664C38 105.566 43.8361 111.402 51.0353 111.402Z" fill="#EDD6A5"/>
<path d="M83.9711 118.432C90.6615 115.773 94.7492 110.256 93.1012 106.109C91.4532 101.961 84.6936 100.754 78.0032 103.412C71.3128 106.071 67.2251 111.588 68.8731 115.735C70.5211 119.883 77.2807 121.09 83.9711 118.432Z" fill="#E2C78C"/>
<path d="M156.991 117.881C158.84 113.819 155.028 108.108 148.476 105.125C141.924 102.142 135.113 103.016 133.264 107.078C131.415 111.14 135.227 116.851 141.779 119.834C148.331 122.817 155.142 121.943 156.991 117.881Z" fill="#E2C78C"/>
<path d="M184.834 75.2129C185.014 68.021 179.321 62.0477 172.139 61.8779C171.43 61.8579 170.74 61.9178 170.061 62.0077C171.43 59.8102 172.259 57.2331 172.329 54.4563C172.528 46.1556 165.966 39.2534 157.665 39.0536C154.529 38.9737 151.592 39.8727 149.145 41.4509C147.756 32.7008 140.295 25.8985 131.115 25.6787C125.921 25.5488 121.166 27.5566 117.69 30.8828C114.903 26.5677 110.109 23.661 104.585 23.5311C97.5429 23.3613 91.4597 27.7564 89.1423 34.0193C86.3755 31.4622 82.7096 29.844 78.6442 29.7441C69.7742 29.5244 62.4125 36.5365 62.1927 45.4065C62.1627 46.5452 62.2626 47.6539 62.4624 48.7327C62.3425 48.7327 62.2327 48.7127 62.1128 48.7027C54.1618 48.503 47.5592 54.7959 47.3694 62.7369C47.2695 66.7424 48.8278 70.4083 51.4049 73.0853C48.8078 74.4637 47.0198 77.1507 46.9399 80.2971C46.83 84.9319 50.4959 88.7776 55.1307 88.8974C59.7654 89.0173 63.6111 85.3414 63.731 80.7067C63.7609 79.538 63.5512 78.4292 63.1416 77.4104C70.2936 76.7311 75.9772 70.8078 76.157 63.4461C76.167 62.8568 76.137 62.2774 76.087 61.6981C76.6664 61.778 77.2657 61.8279 77.865 61.8479C84.9071 62.0177 90.9902 57.6227 93.3076 51.3597C96.0745 53.9169 99.7404 55.535 103.806 55.6349C107.532 55.7248 110.988 54.5262 113.765 52.4585C116.711 58.6216 122.914 62.9467 130.206 63.1265C135.071 63.2463 139.536 61.4783 142.942 58.5217C144.8 64.5249 150.303 68.9499 156.936 69.1197C158.105 69.1497 159.243 69.0298 160.332 68.8001C159.413 70.5281 158.864 72.4759 158.814 74.5636C158.684 79.8376 161.711 84.4425 166.175 86.6C165.776 87.3791 165.516 88.2482 165.496 89.1871C165.416 92.4934 168.033 95.2403 171.33 95.3202C174.626 95.4001 177.383 92.783 177.463 89.4868C177.483 88.5478 177.273 87.6688 176.913 86.8697C181.468 84.9319 184.725 80.4769 184.854 75.2029L184.834 75.2129Z" fill="#471D0D"/>
<path d="M103.805 112.082C104.375 111.702 108.34 116.826 113.924 116.227C118.409 115.748 120.926 111.902 121.615 112.241C122.504 112.681 119.767 119.803 114.354 120.692C107.721 121.781 103.086 112.551 103.805 112.082Z" fill="#E2C78C"/>
<path d="M94.24 109.175C100.144 108.297 104.108 102.06 103.095 95.2451C102.081 88.4298 96.4732 83.6168 90.5691 84.4949C84.6651 85.3731 80.7007 91.6099 81.7144 98.4251C82.728 105.24 88.336 110.053 94.24 109.175Z" fill="white"/>
<path d="M93.4395 107.42C96.9317 106.9 99.2772 103.215 98.6782 99.1878C98.0793 95.1609 94.7627 92.3174 91.2705 92.8368C87.7783 93.3563 85.4328 97.0419 86.0318 101.069C86.6307 105.096 89.9473 107.939 93.4395 107.42Z" fill="#231F20"/>
<path d="M143.924 96.948C144.533 90.0847 140.206 84.0932 134.261 83.5657C128.315 83.0382 123.001 88.1744 122.393 95.0377C121.784 101.901 126.11 107.892 132.056 108.42C138.001 108.947 143.315 103.811 143.924 96.948Z" fill="white"/>
<path d="M139.287 100.369C139.647 96.3137 137.088 92.7733 133.571 92.4613C130.054 92.1493 126.912 95.1838 126.552 99.2392C126.192 103.295 128.751 106.835 132.268 107.147C135.785 107.459 138.928 104.424 139.287 100.369Z" fill="#231F20"/>
<path d="M57.6079 62.5174C57.6079 62.5174 57.6379 -0.811199 101.379 0.00787734C145.119 0.826954 156.976 39.1637 156.976 39.1637C156.976 39.1637 87.8338 42.3402 57.6079 62.5074V62.5174Z" fill="#C4D92E"/>
<path d="M79.8923 52.0299C79.8923 52.0299 80.1221 -0.161285 112.176 0.388096C144.24 0.927488 152.81 32.4819 152.81 32.4819C152.81 32.4819 102.107 35.3187 79.8823 52.0299H79.8923Z" fill="#E7EA8B"/>
<path d="M80.462 52.1084C81.8504 52.6478 118.11 40.5315 138.147 42.8888C164.707 46.0253 181.238 58.9308 185.154 58.1117C190.208 57.0629 170.97 33.879 138.716 29.1144C99.2208 23.2809 76.007 50.3704 80.452 52.1084H80.462Z" fill="#18AA4A"/>
<path d="M92.4393 312.225C92.4393 312.225 82.2008 297.492 73.9601 313.724C73.9601 313.724 54.7318 314.972 56.7295 333.951C56.7295 333.951 68.2166 342.441 98.6822 335.449L99.9308 336.698L108.921 335.2L108.671 329.456C108.671 329.456 111.917 325.71 110.169 312.475C110.169 312.475 104.925 316.72 92.4393 312.225Z" fill="#231F20"/>
<path d="M56.4795 332.403C56.4795 332.403 72.7112 338.376 102.677 330.824C102.677 330.824 73.4603 335.569 56.4795 330.295V332.403Z" fill="white"/>
<path d="M110.169 313.475C110.169 313.475 112.166 319.718 128.398 320.217C128.398 320.217 132.643 305.983 148.625 313.725C148.625 313.725 171.849 312.476 166.106 329.956L166.605 333.452C166.605 333.452 160.112 348.186 122.155 333.452L119.408 334.451C119.408 334.451 111.917 333.452 108.67 328.957L108.171 323.214L110.169 313.475Z" fill="#231F20"/>
<path d="M164.857 330.955C164.857 330.955 157.116 344.69 122.655 330.206C122.655 330.206 158.614 339.945 164.857 330.955Z" fill="white"/>
<path d="M140.974 154.823L152.96 207.434C152.96 207.434 154.958 180.464 153.46 155.992L140.974 154.823Z" fill="#C4D92E"/>
<path d="M85.6957 155.492L71.8813 156.161C71.8813 156.161 68.3853 181.133 74.3785 208.103L85.6957 155.492Z" fill="#C4D92E"/>
<path d="M116.811 192.57C123.089 192.57 128.178 187.481 128.178 181.203C128.178 174.925 123.089 169.836 116.811 169.836C110.533 169.836 105.444 174.925 105.444 181.203C105.444 187.481 110.533 192.57 116.811 192.57Z" fill="#EDD6A5"/>
<path d="M111.803 175.608C113.126 174.613 112.45 171.484 110.295 168.618C108.139 165.753 105.32 164.236 103.997 165.231C102.675 166.226 103.35 169.355 105.505 172.221C107.661 175.087 110.48 176.603 111.803 175.608Z" fill="#EDD6A5"/>
<path d="M127.22 171.289C130.279 168.231 131.645 164.639 130.272 163.266C128.899 161.893 125.306 163.259 122.248 166.317C119.19 169.375 117.824 172.968 119.197 174.341C120.57 175.714 124.162 174.348 127.22 171.289Z" fill="#EDD6A5"/>
<path d="M126.595 179.824C129.653 176.765 131.019 173.173 129.646 171.8C128.273 170.427 124.681 171.793 121.622 174.851C118.564 177.909 117.198 181.502 118.571 182.875C119.944 184.248 123.537 182.882 126.595 179.824Z" fill="#EDD6A5"/>
<path d="M126.49 186.158C130.236 183.995 132.485 180.879 131.514 179.197C130.543 177.516 126.72 177.905 122.974 180.068C119.229 182.23 116.979 185.347 117.95 187.028C118.921 188.71 122.745 188.32 126.49 186.158Z" fill="#EDD6A5"/>
<path d="M125.856 190.654C129.601 188.491 131.851 185.375 130.88 183.693C129.909 182.012 126.085 182.401 122.34 184.564C118.594 186.726 116.345 189.843 117.316 191.524C118.287 193.206 122.11 192.816 125.856 190.654Z" fill="#EDD6A5"/>
<path d="M83.1693 171.164C83.1693 171.164 94.3267 178.586 108.091 177.337L116.811 192.84C116.811 192.84 99.0214 197.494 81.1016 197.404C63.1818 197.315 83.1693 171.164 83.1693 171.164Z" fill="#EDD6A5"/>
<path d="M65.689 203.179L71.4725 167.279L83.1693 171.165L81.1016 197.405L65.689 203.179Z" fill="white"/>
<path d="M72.1212 198.323C73.5721 198.323 74.7482 197.147 74.7482 195.696C74.7482 194.246 73.5721 193.069 72.1212 193.069C70.6703 193.069 69.4941 194.246 69.4941 195.696C69.4941 197.147 70.6703 198.323 72.1212 198.323Z" fill="#ADDEE1"/>
<path d="M93.9855 73.4349C101.721 70.4049 107.704 67.2115 107.348 66.3023C106.991 65.3931 100.432 67.1124 92.6958 70.1425C84.9601 73.1726 78.9777 76.3659 79.3338 77.2751C79.6899 78.1843 86.2497 76.465 93.9855 73.4349Z" fill="#471D0D"/>
<path d="M149.045 79.3623C149.454 78.4757 143.671 74.9352 136.127 71.4543C128.583 67.9734 122.136 65.8704 121.727 66.757C121.318 67.6436 127.102 71.1841 134.645 74.665C142.189 78.1459 148.636 80.2489 149.045 79.3623Z" fill="#471D0D"/>
</svg>
