<svg width="231" height="231" viewBox="0 0 231 231" fill="none" xmlns="http://www.w3.org/2000/svg">
<path d="M115.5 180.518C79.6626 180.518 50.6107 151.511 50.6107 115.728C50.6107 79.946 79.6626 50.9385 115.5 50.9385C151.337 50.9385 180.389 79.946 180.389 115.728C180.389 151.511 151.337 180.518 115.5 180.518Z" fill="#EDD6A5"/>
<path d="M50.6609 132.009C43.1162 132.009 37 125.902 37 118.368C37 110.835 43.1162 104.729 50.6609 104.729C58.2056 104.729 64.3218 110.835 64.3218 118.368C64.3218 125.902 58.2056 132.009 50.6609 132.009Z" fill="#EDD6A5"/>
<path d="M180.339 126.719C172.794 126.719 166.678 120.613 166.678 113.079C166.678 105.546 172.794 99.4395 180.339 99.4395C187.884 99.4395 194 105.546 194 113.079C194 120.613 187.884 126.719 180.339 126.719Z" fill="#EDD6A5"/>
<path d="M146.165 134.621C139.109 131.953 134.731 126.253 136.386 121.888C138.042 117.524 145.103 116.148 152.159 118.816C159.215 121.484 163.593 127.185 161.938 131.549C160.282 135.913 153.221 137.289 146.165 134.621Z" fill="#E2C78C"/>
<path d="M69.6318 135.286C67.6263 131.071 71.525 125.033 78.3398 121.801C85.1546 118.568 92.3049 119.365 94.3105 123.58C96.3161 127.796 92.4174 133.833 85.6026 137.066C78.7877 140.298 71.6374 139.501 69.6318 135.286Z" fill="#E2C78C"/>
<path d="M39.7143 91.1292C39.4038 83.6092 45.2628 77.2592 52.7943 76.9592C53.5354 76.9292 54.2666 76.9792 54.9776 77.0592C53.5054 74.7792 52.594 72.0992 52.4738 69.1992C52.1233 60.5092 58.8836 53.1892 67.5769 52.8292C70.8619 52.6992 73.9567 53.5792 76.5506 55.1892C77.8626 46.0092 85.5644 38.7692 95.1791 38.3792C100.617 38.1592 105.635 40.1692 109.331 43.5992C112.175 39.0392 117.153 35.9092 122.942 35.6792C130.323 35.3792 136.773 39.8792 139.307 46.3892C142.161 43.6592 145.977 41.9092 150.233 41.7392C159.527 41.3592 167.359 48.5692 167.74 57.8492C167.79 59.0392 167.71 60.2092 167.52 61.3392C167.64 61.3392 167.76 61.3092 167.88 61.3092C176.203 60.9692 183.234 67.4392 183.574 75.7492C183.745 79.9392 182.182 83.7992 179.518 86.6492C182.262 88.0492 184.185 90.8292 184.325 94.1192C184.526 98.9692 180.75 103.059 175.893 103.259C171.035 103.459 166.939 99.6892 166.739 94.8392C166.688 93.6192 166.889 92.4492 167.299 91.3792C159.788 90.7892 153.739 84.6892 153.428 76.9892C153.398 76.3692 153.428 75.7692 153.478 75.1592C152.867 75.2492 152.246 75.3192 151.615 75.3392C144.234 75.6392 137.784 71.1392 135.25 64.6292C132.396 67.3592 128.58 69.1092 124.324 69.2792C120.418 69.4392 116.772 68.2392 113.828 66.1292C110.843 72.6192 104.423 77.2592 96.7816 77.5692C91.6838 77.7792 86.9665 76.0092 83.351 72.9592C81.5082 79.2692 75.8095 83.9992 68.8689 84.2892C67.647 84.3392 66.4552 84.2392 65.3034 84.0192C66.2949 85.8092 66.9059 87.8392 66.996 90.0292C67.2264 95.5492 64.1216 100.419 59.4845 102.749C59.9152 103.559 60.2056 104.459 60.2457 105.439C60.3859 108.899 57.6918 111.809 54.2365 111.959C50.7812 112.109 47.8568 109.409 47.7065 105.959C47.6665 104.979 47.8768 104.059 48.2373 103.209C43.43 101.259 39.9447 96.6592 39.7143 91.1392V91.1292Z" fill="#471D0D"/>
<path d="M125.265 128.339C124.664 127.959 120.588 133.379 114.739 132.849C110.031 132.419 107.327 128.439 106.606 128.819C105.675 129.299 108.669 136.699 114.368 137.539C121.339 138.569 126.036 128.829 125.275 128.349L125.265 128.339Z" fill="#E2C78C"/>
<path d="M125.539 111.909C125.422 104.697 130.402 98.7683 136.662 98.6668C142.923 98.5653 148.093 104.329 148.211 111.541C148.328 118.753 143.348 124.682 137.087 124.783C130.826 124.885 125.656 119.121 125.539 111.909Z" fill="white"/>
<path d="M126.622 111.479C126.553 107.216 129.496 103.711 133.196 103.651C136.896 103.591 139.952 106.998 140.021 111.261C140.09 115.525 137.147 119.029 133.447 119.089C129.747 119.149 126.692 115.742 126.622 111.479Z" fill="#231F20"/>
<path d="M82.9441 112.596C82.8269 105.384 87.8071 99.4558 94.0677 99.3543C100.328 99.2528 105.499 105.017 105.616 112.229C105.733 119.441 100.753 125.369 94.4923 125.471C88.2317 125.572 83.0614 119.808 82.9441 112.596Z" fill="white"/>
<path d="M84.0373 112.176C83.968 107.913 86.9112 104.408 90.6112 104.348C94.3111 104.288 97.3667 107.696 97.436 111.959C97.5053 116.222 94.5621 119.726 90.8622 119.786C87.1622 119.846 84.1066 116.439 84.0373 112.176Z" fill="#231F20"/>
<path d="M151.906 105.609C150.974 105.779 148.831 96.9293 141.44 94.5893C135.501 92.7093 130.142 96.2793 129.461 95.4493C128.58 94.3793 136.062 86.6893 143.413 88.5593C152.417 90.8493 153.078 105.399 151.906 105.609Z" fill="#231F20"/>
<path d="M80.2762 107.919C81.2177 108.059 83.0605 99.1491 90.3717 96.5691C96.2406 94.4991 101.719 97.8891 102.37 97.0391C103.211 95.9391 95.4895 88.4991 88.1983 90.6091C79.2747 93.1891 79.0844 107.749 80.2662 107.929L80.2762 107.919Z" fill="#231F20"/>
<path d="M172.838 75.6789C172.838 75.6789 171.716 9.41887 125.896 11.0289C80.0761 12.6389 68.2981 52.9489 68.2981 52.9489C68.2981 52.9489 140.819 55.0989 172.838 75.6789Z" fill="#C4D92E"/>
<path d="M149.302 65.089C149.302 65.089 148.17 10.479 114.579 11.599C80.9873 12.709 72.5344 45.879 72.5344 45.879C72.5344 45.879 125.726 47.979 149.302 65.089Z" fill="#E7EA8B"/>
<path d="M148.711 65.1788C147.269 65.7688 109.05 53.6988 88.0882 56.5188C60.3057 60.2488 43.1995 74.0388 39.0832 73.2488C33.7751 72.2288 53.5353 47.6488 87.2569 42.1088C128.55 35.3288 153.338 63.2788 148.711 65.1788Z" fill="#18AA4A"/>
<path d="M121.349 173.018C108.46 176.228 95.3996 168.388 92.1847 155.518L138.876 143.898C142.091 156.768 134.239 169.808 121.349 173.018Z" fill="#231F20"/>
<path d="M129.542 149.309C132.937 148.459 136.342 148.589 139.487 149.469C139.607 160.349 132.296 170.289 121.269 173.029C119.406 173.489 117.543 173.699 115.7 173.719C115.6 173.399 115.49 173.099 115.41 172.769C112.816 162.389 119.146 151.889 129.542 149.299V149.309Z" fill="#ED1C24"/>
</svg>
